<svg width="31" height="30" viewBox="0 0 31 30" fill="none" xmlns="http://www.w3.org/2000/svg">
<path fill-rule="evenodd" clip-rule="evenodd" d="M4.6109 5.10981L4.70158 5.01504C7.11086 2.60555 8.67981 1.96689 10.3538 2.92953C10.8354 3.20644 11.2868 3.59404 11.9007 4.21751L13.7836 6.17004C14.8237 7.30491 15.0601 8.39348 14.7215 9.66831L14.6748 9.83709L14.623 10.0049L14.3713 10.7434C13.8325 12.3997 14.0575 13.3341 15.9743 15.2505C17.9677 17.2433 18.8982 17.4064 20.6822 16.783L21.0001 16.6725L21.3846 16.5476L21.5529 16.5009C22.9079 16.1394 24.0525 16.4279 25.2665 17.641L26.7837 19.1065L27.2303 19.5457C27.7254 20.0507 28.0527 20.4507 28.2944 20.8736C29.251 22.5471 28.6117 24.1151 26.1329 26.5847L25.8971 26.8236C25.527 27.1803 25.1812 27.4358 24.6733 27.677C23.8206 28.0818 22.8133 28.2345 21.6427 28.0717C18.7584 27.6706 15.1002 25.3947 10.4648 20.7606C10.0875 20.3833 9.72613 20.0134 9.38031 19.6506L8.70934 18.9345C2.42203 12.1036 1.86736 7.90735 4.44397 5.27563L4.6109 5.10981ZM10.383 5.35116C9.97577 4.94967 9.67995 4.70492 9.41915 4.55495C8.84224 4.2232 8.21937 4.36343 7.06662 5.35559L6.70441 5.67918C6.64123 5.7375 6.57661 5.79804 6.51048 5.86086L6.09514 6.26539L6.05771 6.31215L5.77614 6.59504C5.0957 7.29005 4.77339 8.1383 5.05113 9.59709C5.50689 11.9909 7.59302 15.2382 11.7905 19.4346C16.1641 23.8071 19.4965 25.8801 21.901 26.2145C23.3028 26.4095 24.0178 26.07 24.7469 25.323L25.303 24.7618C25.5637 24.489 25.7865 24.2417 25.9747 24.0157L26.2313 23.6924C26.8871 22.8188 26.947 22.2948 26.6666 21.8041C26.5598 21.6174 26.4046 21.4127 26.1786 21.1626L25.8721 20.8388L25.6907 20.6572L23.7766 18.809C23.137 18.2192 22.6999 18.1355 22.0362 18.3125L21.8446 18.3676L21.0518 18.6368C18.7516 19.3796 17.0922 19.0194 14.6487 16.5765C12.1179 14.0463 11.8211 12.3567 12.669 9.92397L12.7234 9.76764L12.8739 9.31442L12.9478 9.02554C13.0789 8.39683 12.9292 7.95847 12.2534 7.28251C12.2255 7.25468 12.1944 7.22333 12.1606 7.189L10.383 5.35116Z" fill="#101010"/>
</svg>
