<svg width="25" height="24" viewBox="0 0 25 24" fill="none" xmlns="http://www.w3.org/2000/svg">
<path fill-rule="evenodd" clip-rule="evenodd" d="M7.62109 17.5624C7.20709 17.5624 6.87109 17.2264 6.87109 16.8124V9.95239C6.87109 9.53839 7.20709 9.20239 7.62109 9.20239C8.03509 9.20239 8.37109 9.53839 8.37109 9.95239V16.8124C8.37109 17.2264 8.03509 17.5624 7.62109 17.5624Z" fill="#101010"/>
<path fill-rule="evenodd" clip-rule="evenodd" d="M12.2881 17.5615C11.8741 17.5615 11.5381 17.2255 11.5381 16.8115V6.66846C11.5381 6.25446 11.8741 5.91846 12.2881 5.91846C12.7021 5.91846 13.0381 6.25446 13.0381 6.66846V16.8115C13.0381 17.2255 12.7021 17.5615 12.2881 17.5615Z" fill="#101010"/>
<path fill-rule="evenodd" clip-rule="evenodd" d="M16.8779 17.5614C16.4639 17.5614 16.1279 17.2254 16.1279 16.8114V13.5774C16.1279 13.1634 16.4639 12.8274 16.8779 12.8274C17.2919 12.8274 17.6279 13.1634 17.6279 13.5774V16.8114C17.6279 17.2254 17.2919 17.5614 16.8779 17.5614Z" fill="#101010"/>
<path fill-rule="evenodd" clip-rule="evenodd" d="M7.564 2.5C4.792 2.5 3 4.397 3 7.335V16.165C3 19.103 4.792 21 7.564 21H16.936C19.709 21 21.5 19.103 21.5 16.165V7.335C21.5 4.397 19.709 2.5 16.936 2.5H7.564ZM16.936 22.5H7.564C3.937 22.5 1.5 19.954 1.5 16.165V7.335C1.5 3.546 3.937 1 7.564 1H16.936C20.563 1 23 3.546 23 7.335V16.165C23 19.954 20.563 22.5 16.936 22.5Z" fill="#101010"/>
</svg>
