<svg width="25" height="24" viewBox="0 0 25 24" fill="none" xmlns="http://www.w3.org/2000/svg">
<path fill-rule="evenodd" clip-rule="evenodd" d="M19.25 8.55V4.7C19.2227 3.20078 17.9995 1.99975 16.5 2H8.5C7.00053 1.99975 5.77726 3.20078 5.75 4.7V5.15C3.84434 5.62617 2.50551 7.33576 2.5 9.3V18.3C2.5055 20.667 4.42298 22.5845 6.79 22.59H18.23C20.5892 22.5735 22.4946 20.6593 22.5 18.3V12.7C22.4945 10.7358 21.1557 9.02617 19.25 8.55ZM8.5 3.45H16.5C17.1904 3.45 17.75 4.00964 17.75 4.7V8.41H14.2C13.9736 8.41 13.79 8.22644 13.79 8C13.79 6.34315 12.4469 5 10.79 5H7.25V4.7C7.25 4.00964 7.80964 3.45 8.5 3.45ZM18.23 21.3C19.8869 21.3 21.23 19.9569 21.23 18.3L21.2 12.7C21.2 11.0431 19.8569 9.7 18.2 9.7H14.2C13.2611 9.7 12.5 8.93888 12.5 8C12.5001 7.54389 12.3169 7.10687 11.9915 6.78719C11.6662 6.4675 11.226 6.29195 10.77 6.3H6.77C5.11315 6.3 3.77 7.64315 3.77 9.3V18.3C3.77 19.9569 5.11315 21.3 6.77 21.3H18.23Z" fill="#101010"/>
</svg>
