<svg width="25" height="24" viewBox="0 0 25 24" fill="none" xmlns="http://www.w3.org/2000/svg">
<path d="M19.4999 4.75C19.4999 4.33579 19.1641 4 18.7499 4H5.74993C5.33572 4 4.99993 4.33579 4.99993 4.75C4.99993 5.16421 5.33572 5.5 5.74993 5.5H18.7499C18.9497 5.50272 19.142 5.42457 19.2833 5.28333C19.4245 5.14208 19.5026 4.94973 19.4999 4.75Z" fill="black"/>
<path d="M19.4999 11.75C19.4999 11.3358 19.1641 11 18.7499 11H5.74993C5.33572 11 4.99993 11.3358 4.99993 11.75C4.99993 12.1642 5.33572 12.5 5.74993 12.5H18.7499C18.9497 12.5027 19.142 12.4246 19.2833 12.2833C19.4245 12.1421 19.5026 11.9497 19.4999 11.75Z" fill="black"/>
<path d="M19.4999 18.75C19.4999 18.3358 19.1641 18 18.7499 18H5.74993C5.33572 18 4.99993 18.3358 4.99993 18.75C4.99993 19.1642 5.33572 19.5 5.74993 19.5H18.7499C18.9497 19.5027 19.142 19.4246 19.2833 19.2833C19.4245 19.1421 19.5026 18.9497 19.4999 18.75Z" fill="black"/>
</svg>
