<svg width="31" height="31" viewBox="0 0 31 31" fill="none" xmlns="http://www.w3.org/2000/svg">
<mask id="mask0_46_6383" style="mask-type:luminance" maskUnits="userSpaceOnUse" x="4" y="1" width="24" height="23">
<path fill-rule="evenodd" clip-rule="evenodd" d="M4.25012 1.75H27.3713V23.435H4.25012V1.75Z" fill="white"/>
</mask>
<g mask="url(#mask0_46_6383)">
<path fill-rule="evenodd" clip-rule="evenodd" d="M15.8089 3.625C11.4401 3.625 8.39514 7.0475 8.39514 10.1188C8.39514 12.7175 7.67389 13.9187 7.03639 14.9788C6.52514 15.83 6.12139 16.5025 6.12139 17.9637C6.33014 20.3212 7.88639 21.56 15.8089 21.56C23.6876 21.56 25.2926 20.2663 25.5001 17.8825C25.4964 16.5025 25.0926 15.83 24.5814 14.9788C23.9439 13.9187 23.2226 12.7175 23.2226 10.1188C23.2226 7.0475 20.1776 3.625 15.8089 3.625ZM15.8089 23.435C9.96389 23.435 4.68139 23.0225 4.25014 18.0438C4.24639 15.9837 4.87514 14.9362 5.43014 14.0138C5.99139 13.0787 6.52014 12.1975 6.52014 10.1188C6.52014 6.0775 10.2526 1.75 15.8089 1.75C21.3651 1.75 25.0976 6.0775 25.0976 10.1188C25.0976 12.1975 25.6264 13.0787 26.1876 14.0138C26.7426 14.9362 27.3714 15.9837 27.3714 17.9637C26.9351 23.0225 21.6539 23.435 15.8089 23.435Z" fill="#FF87CA"/>
</g>
<path fill-rule="evenodd" clip-rule="evenodd" d="M15.7479 28.625H15.7454C14.3442 28.6238 13.0179 28.0063 12.0117 26.885C11.6654 26.5013 11.6967 25.9075 12.0817 25.5625C12.4667 25.215 13.0592 25.2463 13.4054 25.6325C14.0529 26.3538 14.8842 26.75 15.7467 26.75H15.7479C16.6142 26.75 17.4492 26.3538 18.0979 25.6313C18.4454 25.2475 19.0379 25.2163 19.4217 25.5625C19.8067 25.9088 19.8379 26.5025 19.4917 26.8863C18.4816 28.0075 17.1529 28.625 15.7479 28.625Z" fill="#FF87CA"/>
</svg>
