<svg width="24" height="25" viewBox="0 0 24 25" fill="none" xmlns="http://www.w3.org/2000/svg">
<mask id="mask0_1194_44271" style="mask-type:luminance" maskUnits="userSpaceOnUse" x="3" y="2" width="18" height="21">
<path fill-rule="evenodd" clip-rule="evenodd" d="M3 2.23425H20.0527V22.0878H3V2.23425Z" fill="white"/>
</mask>
<g mask="url(#mask0_1194_44271)">
<path fill-rule="evenodd" clip-rule="evenodd" d="M7.5731 3.73425C5.9161 3.73425 4.5401 5.07625 4.5011 6.73125V17.4263C4.4641 19.1393 5.8141 20.5503 7.5101 20.5883H15.5741C17.2431 20.5193 18.5651 19.1323 18.5531 17.4323V8.56225L13.9181 3.73425H7.5851H7.5731ZM7.5851 22.0883H7.4761C4.9541 22.0313 2.9461 19.9333 3.0011 17.4103V6.71325C3.0591 4.23225 5.1081 2.23425 7.5711 2.23425H7.5881H14.2381C14.4421 2.23425 14.6371 2.31725 14.7791 2.46425L19.8441 7.74125C19.9781 7.88025 20.0531 8.06725 20.0531 8.26025V17.4263C20.0711 19.9353 18.1171 21.9853 15.6041 22.0873L7.5851 22.0883Z" fill="#4E4E4E" fill-opacity="0.5"/>
</g>
<path fill-rule="evenodd" clip-rule="evenodd" d="M19.2986 9.2069H16.5436C14.7136 9.2019 13.2256 7.7099 13.2256 5.8819V2.9729C13.2256 2.5589 13.5616 2.2229 13.9756 2.2229C14.3896 2.2229 14.7256 2.5589 14.7256 2.9729V5.8819C14.7256 6.8859 15.5426 7.7039 16.5456 7.7069H19.2986C19.7126 7.7069 20.0486 8.0429 20.0486 8.4569C20.0486 8.8709 19.7126 9.2069 19.2986 9.2069Z" fill="#4E4E4E" fill-opacity="0.5"/>
<path fill-rule="evenodd" clip-rule="evenodd" d="M13.7887 16.3311H8.38867C7.97467 16.3311 7.63867 15.9951 7.63867 15.5811C7.63867 15.1671 7.97467 14.8311 8.38867 14.8311H13.7887C14.2027 14.8311 14.5387 15.1671 14.5387 15.5811C14.5387 15.9951 14.2027 16.3311 13.7887 16.3311Z" fill="#4E4E4E" fill-opacity="0.5"/>
<path fill-rule="evenodd" clip-rule="evenodd" d="M11.7437 12.579H8.3877C7.9737 12.579 7.6377 12.243 7.6377 11.829C7.6377 11.415 7.9737 11.079 8.3877 11.079H11.7437C12.1577 11.079 12.4937 11.415 12.4937 11.829C12.4937 12.243 12.1577 12.579 11.7437 12.579Z" fill="#4E4E4E" fill-opacity="0.5"/>
</svg>
