<svg width="20" height="20" viewBox="0 0 20 20" fill="none" xmlns="http://www.w3.org/2000/svg">
<path fill-rule="evenodd" clip-rule="evenodd" d="M13.7493 3.75V10.4167C13.7493 12.2576 12.257 13.75 10.416 13.75H3.74935C1.9084 13.75 0.416016 12.2576 0.416016 10.4167V3.75C0.416016 1.90905 1.9084 0.416668 3.74935 0.416668H10.416C12.257 0.416668 13.7493 1.90905 13.7493 3.75ZM1.66602 3.75V10.4167C1.66602 10.9692 1.88551 11.4991 2.27621 11.8898C2.66691 12.2805 3.19681 12.5 3.74935 12.5H10.416C11.5666 12.5 12.4993 11.5673 12.4993 10.4167V3.75C12.4993 2.59941 11.5666 1.66667 10.416 1.66667H3.74935C2.59876 1.66667 1.66602 2.59941 1.66602 3.75Z" fill="#FF87CA"/>
<path d="M16.2493 5.625C15.906 5.62949 15.6288 5.9067 15.6243 6.25V12.9167C15.6198 14.4105 14.4099 15.6204 12.916 15.625H6.24935C5.90417 15.625 5.62435 15.9048 5.62435 16.25C5.62435 16.5952 5.90417 16.875 6.24935 16.875H12.916C15.1021 16.875 16.8743 15.1028 16.8743 12.9167V6.25C16.8699 5.9067 16.5927 5.62949 16.2493 5.625Z" fill="#FF87CA"/>
</svg>
