<svg width="14" height="14" viewBox="0 0 14 14" fill="none" xmlns="http://www.w3.org/2000/svg">
<path d="M0.802734 13.2676C0.382812 12.8477 0.392578 12.1348 0.802734 11.7246L5.55859 6.95898L0.802734 2.20312C0.392578 1.79297 0.382812 1.08008 0.802734 0.660156C1.22266 0.240234 1.93555 0.25 2.3457 0.650391L7.11133 5.41602L11.8672 0.660156C12.2773 0.25 12.9902 0.240234 13.4102 0.660156C13.8301 1.08008 13.8203 1.79297 13.4102 2.20312L8.6543 6.95898L13.4102 11.7246C13.8203 12.1348 13.8301 12.8477 13.4102 13.2676C12.9902 13.6875 12.2773 13.6777 11.8672 13.2676L7.11133 8.51172L2.3457 13.2676C1.93555 13.6777 1.22266 13.6875 0.802734 13.2676Z" fill="#B9B9B9"/>
</svg>
