<svg width="8" height="14" viewBox="0 0 8 14" fill="none" xmlns="http://www.w3.org/2000/svg">
<g clip-path="url(#clip0_1727_53128)">
<path d="M6.3586 13.7194L0.257917 7.62931C0.0923055 7.45933 1.24942e-06 7.23409 1.25966e-06 6.99994C1.26989e-06 6.76579 0.0923055 6.54054 0.257917 6.37056L6.36253 0.280456C6.44876 0.19187 6.55266 0.121311 6.66788 0.0730908C6.78311 0.0248702 6.90723 3.01925e-07 7.03267 3.07408e-07C7.15811 3.12891e-07 7.28224 0.0248702 7.39746 0.0730909C7.51268 0.121312 7.61658 0.19187 7.70282 0.280456C7.89365 0.476421 8 0.736042 8 1.00592C8 1.27581 7.89365 1.53543 7.70282 1.73139L2.5851 6.8313C2.54023 6.8766 2.51517 6.93704 2.51517 6.99994C2.51517 7.06283 2.54023 7.12328 2.5851 7.16858L7.69758 12.271C7.88833 12.4668 7.99464 12.7262 7.99464 12.9959C7.99464 13.2655 7.88833 13.5249 7.69758 13.7207C7.61115 13.809 7.50719 13.8792 7.39199 13.9272C7.27679 13.9752 7.15277 14 7.02744 14C6.9021 14 6.77808 13.9752 6.66288 13.9272C6.54769 13.8792 6.44372 13.809 6.35729 13.7207L6.3586 13.7194Z" fill="#383838"/>
</g>
<defs>
<clipPath id="clip0_1727_53128">
<rect width="8" height="14" fill="white"/>
</clipPath>
</defs>
</svg>
