<svg width="8" height="14" viewBox="0 0 8 14" fill="none" xmlns="http://www.w3.org/2000/svg">
<path d="M1.6414 13.7194L7.74208 7.62931C7.9077 7.45933 8 7.23409 8 6.99994C8 6.76579 7.9077 6.54054 7.74208 6.37056L1.63747 0.280456C1.55124 0.19187 1.44734 0.121312 1.33212 0.0730911C1.21689 0.0248705 1.09277 6.03849e-07 0.967327 6.14816e-07C0.841886 6.25782e-07 0.717764 0.0248706 0.602541 0.0730912C0.487318 0.121312 0.383416 0.19187 0.297183 0.280456C0.106352 0.476421 -1.15957e-06 0.736043 -1.13598e-06 1.00592C-1.11238e-06 1.27581 0.106352 1.53543 0.297183 1.73139L5.4149 6.8313C5.45977 6.8766 5.48483 6.93704 5.48483 6.99994C5.48483 7.06283 5.45977 7.12328 5.4149 7.16858L0.302419 12.271C0.111675 12.4668 0.00536097 12.7262 0.00536099 12.9959C0.00536102 13.2655 0.111675 13.5249 0.302419 13.7207C0.388848 13.809 0.492814 13.8792 0.60801 13.9272C0.723207 13.9752 0.847233 14 0.972565 14C1.0979 14 1.22192 13.9752 1.33712 13.9272C1.45231 13.8792 1.55628 13.809 1.64271 13.7207L1.6414 13.7194Z" fill="#12CB30"/>
</svg>
