<svg width="22" height="22" viewBox="0 0 22 22" fill="none" xmlns="http://www.w3.org/2000/svg">
<path d="M12.3155 21.8938H12.1649C11.9496 21.8685 11.7474 21.7773 11.5857 21.6329C11.4241 21.4884 11.311 21.2976 11.2618 21.0864L9.41447 12.4793L0.807301 10.6319C0.596165 10.5827 0.405344 10.4696 0.260861 10.308C0.116377 10.1464 0.0252653 9.9441 -4.92623e-05 9.72879C-0.0228418 9.51228 0.0247504 9.29419 0.13567 9.10686C0.246589 8.91953 0.414929 8.77294 0.615726 8.68882L20.5258 0.0816442C20.7173 -0.00982007 20.9325 -0.0396625 21.1416 -0.00377372C21.3508 0.0321151 21.5437 0.13197 21.6938 0.28204C21.8439 0.432111 21.9437 0.625015 21.9796 0.83419C22.0155 1.04337 21.9857 1.25852 21.8942 1.45003L13.2186 21.278C13.1388 21.4534 13.0124 21.6036 12.8531 21.7122C12.6939 21.8207 12.5079 21.8836 12.3155 21.8938ZM4.3788 9.29091L10.4955 10.6593C10.6906 10.7002 10.8695 10.7971 11.0104 10.938C11.1514 11.079 11.2482 11.2579 11.2892 11.453L12.6576 17.5697L18.9521 3.05105L4.3788 9.29091Z" fill="#383838"/>
</svg>
