<svg width="15" height="20" viewBox="0 0 15 20" fill="none" xmlns="http://www.w3.org/2000/svg">
<path d="M7.25928 9.5376C7.5 9.5376 7.69092 9.46289 7.84033 9.30518L11.2437 5.87695C11.4263 5.69434 11.5093 5.49512 11.5093 5.2627C11.5093 5.03857 11.418 4.82275 11.2437 4.65674L7.84033 1.19531C7.69092 1.0293 7.5 0.946289 7.25928 0.946289C6.81104 0.946289 6.4541 1.31982 6.4541 1.77637C6.4541 2.00049 6.53711 2.18311 6.67822 2.34082L8.66211 4.2832C8.27197 4.2251 7.87354 4.19189 7.4751 4.19189C3.36621 4.19189 0.0791016 7.479 0.0791016 11.5962C0.0791016 15.7134 3.39111 19.0254 7.5 19.0254C11.6172 19.0254 14.9209 15.7134 14.9209 11.5962C14.9209 11.0981 14.5723 10.7412 14.0742 10.7412C13.5928 10.7412 13.269 11.0981 13.269 11.5962C13.269 14.8003 10.7041 17.3735 7.5 17.3735C4.3042 17.3735 1.73096 14.8003 1.73096 11.5962C1.73096 8.36719 4.2793 5.81055 7.4751 5.81055C8.01465 5.81055 8.5127 5.85205 8.95264 5.92676L6.68652 8.16797C6.53711 8.31738 6.4541 8.5 6.4541 8.72412C6.4541 9.18066 6.81104 9.5376 7.25928 9.5376Z" fill="white"/>
</svg>
